<svg id="Layer_1" data-name="Layer 1" xmlns="http://www.w3.org/2000/svg" viewBox="0 0 628.54 655.17"><defs><style>.cls-1{fill:none;}.cls-1,.cls-2,.cls-3,.cls-5,.cls-8{stroke:#d4d4de;}.cls-1,.cls-2,.cls-3,.cls-5,.cls-7,.cls-8,.cls-9{stroke-miterlimit:10;}.cls-1,.cls-8{stroke-width:5px;}.cls-2,.cls-5{fill:#0076bc;}.cls-2{stroke-width:3px;}.cls-15,.cls-3,.cls-7{fill:#fff;}.cls-3{stroke-width:6px;}.cls-4,.cls-8,.cls-9{fill:#ec313a;}.cls-5{stroke-width:2px;}.cls-6{fill:#d4d4de;}.cls-7,.cls-9{stroke:#bebfc1;}.cls-7{stroke-width:0.25px;}.cls-10{fill:#fbd328;}.cls-11{fill:#bebfc1;}.cls-12{fill:#fff20e;}.cls-13{font-size:49.45px;font-family:Montserrat-Bold, Montserrat;font-weight:700;}.cls-13,.cls-14{fill:#1b7cbc;}</style></defs><g id="Logo_NEU" data-name="Logo NEU"><ellipse class="cls-1" cx="300" cy="300" rx="291.97" ry="286.92" transform="translate(-89.7 361.39) rotate(-44.75)"/><circle class="cls-2" cx="334.56" cy="363.24" r="200.35"/><path class="cls-1" d="M463.54,184a200.39,200.39,0,0,0-327,.28c40.19,31.86,98.47,51.9,163.32,51.9C364.91,236.22,423.34,216.06,463.54,184Z" transform="translate(34.56 63.24)"/><path class="cls-1" d="M300.14,500.35a200.05,200.05,0,0,0,161.49-81.78c-40.06-30.44-97-49.47-160.2-49.47-64.07,0-121.73,19.55-161.86,50.74A200,200,0,0,0,300.14,500.35Z" transform="translate(34.56 63.24)"/><line class="cls-1" x1="134.21" y1="363.24" x2="534.91" y2="363.24"/><line class="cls-1" x1="334.56" y1="563.59" x2="334.56" y2="162.89"/><path class="cls-3" d="M449.27,299.74c-18.49-14.13-42.87-23-71.72-23-29.5,0-56.57,8.75-77.71,22.9-21.14-14.15-48.21-22.9-77.71-22.9-28.84,0-53.23,8.83-71.72,23L197.25,466H402.44Z" transform="translate(34.56 63.24)"/><path class="cls-4" d="M300.14,462.29c26.29,0,45.87,9.85,63.34,26.83,10.55-4.95,27-11.17,35-15.84a125,125,0,0,0-197.31.7c8.29,4.43,23.95,10.87,35.58,15.62C254.22,472.93,274.11,462.29,300.14,462.29Z" transform="translate(34.56 63.24)"/><path class="cls-5" d="M299.07,520a228.5,228.5,0,0,1-80-14.33L201.59,550a248.05,248.05,0,0,0,96.63,19.39,253.25,253.25,0,0,0,99.93-20.49l-18.21-43.39A232.54,232.54,0,0,1,299.07,520Z" transform="translate(34.56 63.24)"/><path class="cls-6" d="M299.87,428.91A117.46,117.46,0,0,1,394,476l8.36-4.05a126.77,126.77,0,0,0-205.19.25l8.53,3.82A117.45,117.45,0,0,1,299.87,428.91Z" transform="translate(34.56 63.24)"/><path class="cls-6" d="M299.87,438a108.37,108.37,0,0,1,85.79,42.05l3.33-1.61a112.17,112.17,0,0,0-178.16-.13l3.41,1.52A108.34,108.34,0,0,1,299.87,438Z" transform="translate(34.56 63.24)"/><path class="cls-6" d="M299.86,452.69a93.64,93.64,0,0,1,72.23,33.93l7.63-3.69a102.09,102.09,0,0,0-159.4-.38l7.81,3.49A93.63,93.63,0,0,1,299.86,452.69Z" transform="translate(34.56 63.24)"/><path class="cls-6" d="M299.86,463.15a83.15,83.15,0,0,1,62.48,28.2l3.56-1.73a87.18,87.18,0,0,0-131.42-.74l3.64,1.62A83.14,83.14,0,0,1,299.86,463.15Z" transform="translate(34.56 63.24)"/><path class="cls-7" d="M382.85,256.77c-31.33.89-61,10.51-82.84,25.34-21.87-14.83-51.51-24.45-82.84-25.34-27.72-.79-53.35,5.31-73.55,16.11l4.79,11.21c20.06-10.5,45.32-16.41,72.63-15.63,26.42.75,52.19,7.28,73.21,17.82q3.15,1.58,6.15,3.27c1.85-1,3.74-2.06,5.68-3,21.1-10.68,47.06-17.29,73.68-18.05,27.56-.78,53.05,5.24,73.2,15.93l4.64-10.86C437.22,262.33,411.13,256,382.85,256.77Z" transform="translate(34.56 63.24)"/><path class="cls-7" d="M300.07,266c-2.27-1.48-66-42.55-152.63-18l3.65,15.39s72.33-28.42,149,10.4v0h.06v0C376.72,235.06,449,263.48,449,263.48l3.66-15.39C366.11,223.49,302.33,264.56,300.07,266Z" transform="translate(34.56 63.24)"/><path class="cls-8" d="M419.3,460.11h0l9.8-15.36a164.75,164.75,0,0,0-21.84-22.81l-.25.1-20.22,8.48c-1.83-1.38-3.7-2.71-5.59-4l1.32-21.94v-.28a163.38,163.38,0,0,0-32.34-14.41l-.21-.07-16.16,15.76c-2.39-.57-4.79-1.09-7.22-1.54l-8.07-20.26-.29-.72a166.15,166.15,0,0,0-36.31-.05l-.54.06-8.36,21c-2.44.46-4.85,1-7.24,1.55l-15.53-16A163.65,163.65,0,0,0,217.7,404l-.67.39,1.39,22.22q-2.78,1.88-5.46,3.89L194,422.63l-1.61-.67a165.14,165.14,0,0,0-21.71,22.68l10,15.42,21.36,13.62,2-2.82a123.21,123.21,0,0,1,34.93-30.15,122,122,0,0,1,60.8-16.2,124.91,124.91,0,0,1,13.75.77l.25,0a121.1,121.1,0,0,1,47.41,15.76l.14.08A122.7,122.7,0,0,1,395.68,471l.77.61h0l2.05,2.82,20.8-14.29Z" transform="translate(34.56 63.24)"/><path class="cls-9" d="M222.4,138.85v5H225v3.81h4.77V152h3.57v2.39h2.39v13.82h2.62v1.91H241v2.86h2.38v2.86h23.13v4.53l5.48.48v5h-5.12l-.12,2.39H251.49l-.12,2.74h-2.62l-.36,2.74h5.48v2.62h2.74l-.11,2.51h2.62l-.36,3h3v2.14h5l-.24,3h8.22v2.74h3L277,211.8h2.86v5.6H282v2.74h3.34l-.59,2.39h2.74v2.54h3v3h2.38v2.38h2.7v2.15h2.31l.32,3.26,3-.48-.87,1.91,2.78.55V241h2.78v10.1h10.25v13h8.27v18h-3l-.16,10.33,3.18.63v15.26h-3.18v7.63l-5.24.79v2.07h-4.14l-.31,3.34H306l-.31,2.38H303v1.75H290.59l-.48,5.56-2.54.64v3.81l5.72.8-.48,2.7h4.77l-2.07,2.38H288l-.47-3.33L284.39,337h-3.82l-3.65,6-2.39,2.06-4.29,2.7-6.2,2.23h-4.45l-.95,2.38,3.18,5.09H264l.16,3.18h9.86v2.22h-4.13l-.48,2.55h-2.23l-.47,18.31.24,2.51h-2.87l-.11,8.82s.47,1.31.95,1.55a6.23,6.23,0,0,0,2.14,0l-.35-3,2.26.12.72-4.41,3.69-.72v-2.26l2-.36.12-1.91,4.77-.12-.12-2.5,1.78-.12,1.08-2.38,2-.48-.24-2.86,7.75.24.72-2,7.51-1.07.12-1.2,3.27-1.07v-1.79l4.83-.95-.24-2,2.15-.12V360.2h4.65l1.43-4.41h9.65l2.27-2.62,3-.48v-2.26l4.89-.6v-2.26l5.84-.36v-2.74l1.9.24.6-2.15,2.38-.24,2.75.12v-2.38l3.21.12-.71-2.75,3.1.24v-2.86h2.62v-2.5h2.26V287.73h-2.14l-.48-7.63-.24-2.62-2.14-.24-.72-4.77h-1.9l-.24-5.36h-2.62l-.48-3.46-1.67.48-.36-4.53-2.74-.6-.48-2.62-1.9-.12-.24-2.74-3.82.24-14.54-15.62L318.36,233l-4.53-5.37L311.21,225l-2.51-2.38-.23-7.51-3.1-.36L300.24,210l-1.55-1.19-.47-20.5,1.9-.36,32.42-25.51,4.65-2.38-.35-3-4.41.59-.6-2.86-2.74-.24-10.25-5.12h-5.25l.36-3.22-2.62.36.12-5,3.1-.24-1-2.5h2.74v-5h-4.88l-.6-3.1H293.09l-.12-4.53h-2.62L290,123h-1.55l-.6-5H283l-.24,4.89h-2.38l-8.47,8.7.12,2L261.5,134l-3-.12.36,5.13-2.38-.12.35-2.15-11.2-.95v3l-7.51.12-.36-2.74h-2.5l.48-2.39-3.22.24.47-2.62-4.29-.83,1.55,4.17-2.26-.6Z" transform="translate(34.56 63.24)"/><polygon class="cls-4" points="409.83 425.1 418.47 425.1 418.47 427.67 420.57 429.64 418.47 429.91 417.54 432.34 411.93 432.34 411.23 429.91 407.42 429.91 406.56 425.1 409.83 425.1"/><polygon class="cls-4" points="425.01 427.67 425.01 432.34 428.56 432.34 428.56 430.94 432.48 430 432.48 426.03 428.56 425.1 428.56 427.67 425.01 427.67"/><polygon class="cls-4" points="434.58 418.56 435.51 423.93 437.15 422.53 437.15 425.1 446.02 425.1 446.02 423.7 449.29 423 449.29 418.56 445.55 416.93 444.85 414.59 438.32 415.76 438.08 418.33 434.58 418.56"/><polygon class="cls-4" points="436.68 399.65 436.68 402.92 432.48 402.92 434.02 405.02 432.48 406.42 434.58 409.46 438.55 409.46 438.55 407.35 443.13 404.55 441.94 400.82 436.68 399.65"/><polygon class="cls-4" points="446.02 399.65 446.02 404.55 452.77 405.72 452.77 402.69 454.43 401.28 454.43 397.55 449.29 397.55 449.29 400.58 446.02 399.65"/><polygon class="cls-4" points="400.96 308.13 402.83 313.73 406.56 312.8 405.63 308.13 400.96 308.13"/><polygon class="cls-4" points="410.07 310 410.07 315.26 414.97 312.63 415.9 308.13 410.07 310"/><polygon class="cls-4" points="420.57 306.17 419.81 311.7 421.97 311.7 421.97 308.94 425.01 308.94 425.01 306.17 420.57 306.17"/><polygon class="cls-10" points="335.17 213.94 338.42 220.51 345.68 221.56 340.43 226.68 341.66 233.91 335.17 230.5 328.68 233.91 329.92 226.68 324.67 221.56 331.93 220.51 335.17 213.94"/><path class="cls-11" d="M62,326.87s-10.56,13-7.82,24.3L37.38,332.74s-4-.88-1.66,3.23l16.14,17.21s-9.1-1.66-15,.69a48.65,48.65,0,0,0,6.56,15.23s.58-.88-4.7,1.83c0,0,2,6.41,8.41,15.41L47,389.09s.19-.59-4.31,0c0,0,7.05,13.3,10.57,15.65l.78,3.72H50.49s4.26,11.61,13.31,17v2.2H59.3a50.31,50.31,0,0,0,15.45,16v1.85H71.43s4.49,8.72,15.35,16.15a2.69,2.69,0,0,0-1.7,2.72s.77,5.62,12.42,13.26l2.15,1.94s-2.47-1.56-6.61.08c0,0,11.85,10.71,23.75,16.57l-3.63,1.95s2.35,5.08,20.09,10.14c0,0-1.69-.43-4,4.47,0,0,3.49,4.34,22.95,8.42A6.22,6.22,0,0,0,149.3,525s4.46,1.49,7.82,0c0,0-.78.52-1,3,0,0,7.82,2.09,14.22.65v3.78s-1.83-.13-2.87,2.48c0,0,14.08,2.35,26.47.66a31.21,31.21,0,0,0,14.48-9.65s.65-18.53-3.65-25.57-15.91-16-20.35-18.54c0,0-2.87-1.29-8.48-.9,0,0-4.4-7.79-8.9-9.65,0,0-.43-.78-2.46,2.06,0,0-3-5.39-5.66-7.34,0,0-1.17.1-.88,3,0,0-3.62-7.38-6-8,0,0-1.56-.95-2.47,0,0,0-.26-.79-3.4-.92s-.65-.26-.65-.26.79-4.82-1.17-7.43c0,0,.2.75-1.7.75,0,0-1.56-4.53-3.91-6.1,0,0-1.17-.26-1.3,3.39l-3-.26s.65-4.43-.27-6.65c0,0-1.43-.48-2.21,2,0,0,1-4.52-.26-6.87a6.57,6.57,0,0,0-2.48,2.22s.72-2.12-.39-6.15c0,0-1.24-.11-2.35,2.43l-2.87.07a15.72,15.72,0,0,0,.26-5.7s-.54-.37-2.16,1.33a33.12,33.12,0,0,0-.32-8.42,4.48,4.48,0,0,0-2.74,2.35s.52-4.17-.52-5.21c0,0-1.15.24-2,2.93s1.24-6.87.27-10.51c0,0-1.31-3.8-2.87,0,0,0,1.24-2.47-.85-3a5.93,5.93,0,0,0-3.78.33s2.15-10.18-.46-15.13-5.28-3.07-5.28-3.07,2.8-11.35.13-10.24a17.21,17.21,0,0,0-3.67,1.89s2.36-9.65-3.31-17.41a4.22,4.22,0,0,0-4.63,2.93s2.34-19.5,1.33-23.47-14.9,7.1-14.9,7.1l11.55-20s2-6.45-2.91-2.61l-10.4,20.16S71.62,328.43,62,326.87Z" transform="translate(34.56 63.24)"/><path class="cls-12" d="M54.45,339.65h0a22.5,22.5,0,0,1,22.5,22.5v0a0,0,0,0,1,0,0h0a22.5,22.5,0,0,1-22.5-22.5v0A0,0,0,0,1,54.45,339.65Z" transform="translate(257.23 93.5) rotate(36.69)"/><path class="cls-12" d="M68.75,358.22h0a22.5,22.5,0,0,1,22.5,22.5v0a0,0,0,0,1,0,0h0a22.5,22.5,0,0,1-22.5-22.5v0A0,0,0,0,1,68.75,358.22Z" transform="translate(455.38 269.15) rotate(76.58)"/><path class="cls-12" d="M75.53,373.23h0A22.5,22.5,0,0,1,98,395.73v0a0,0,0,0,1,0,0h0a22.5,22.5,0,0,1-22.5-22.5v0A0,0,0,0,1,75.53,373.23Z" transform="translate(475.18 274.08) rotate(76.58)"/><path class="cls-12" d="M81.79,389.08h0a22.5,22.5,0,0,1,22.5,22.5v0a0,0,0,0,1,0,0h0a22.5,22.5,0,0,1-22.5-22.5v0A0,0,0,0,1,81.79,389.08Z" transform="translate(477.48 247.92) rotate(71.44)"/><path class="cls-12" d="M89.5,402.74h0a22.5,22.5,0,0,1,22.5,22.5v0a0,0,0,0,1,0,0h0a22.5,22.5,0,0,1-22.5-22.5v0a0,0,0,0,1,0,0Z" transform="translate(495.69 249.92) rotate(71.44)"/><path class="cls-12" d="M96.92,417.82h0a22.5,22.5,0,0,1,22.5,22.5v0a0,0,0,0,1,0,0h0a22.5,22.5,0,0,1-22.5-22.5v0A0,0,0,0,1,96.92,417.82Z" transform="translate(478.78 204.43) rotate(63.56)"/><path class="cls-12" d="M105.54,434.27h0a22.5,22.5,0,0,1,22.5,22.5v0a0,0,0,0,1,0,0h0a22.5,22.5,0,0,1-22.5-22.5v0a0,0,0,0,1,0,0Z" transform="translate(438.5 148.66) rotate(53.26)"/><path class="cls-12" d="M116.88,448h0a22.5,22.5,0,0,1,22.5,22.5v0a0,0,0,0,1,0,0h0a22.5,22.5,0,0,1-22.5-22.5v0a0,0,0,0,1,0,0Z" transform="translate(427.07 125.72) rotate(49.27)"/><path class="cls-12" d="M128.31,457.71h0a22.5,22.5,0,0,1,22.5,22.5v0a0,0,0,0,1,0,0h0a22.5,22.5,0,0,1-22.5-22.5v0A0,0,0,0,1,128.31,457.71Z" transform="translate(438.43 120.44) rotate(49.27)"/><path class="cls-12" d="M139.47,468.34h0a22.5,22.5,0,0,1,22.5,22.5v0a0,0,0,0,1,0,0h0a22.5,22.5,0,0,1-22.5-22.5v0A0,0,0,0,1,139.47,468.34Z" transform="translate(417.83 97.14) rotate(45)"/><path class="cls-12" d="M153.29,478.46h0a22.5,22.5,0,0,1,22.5,22.5v0a0,0,0,0,1,0,0h0a22.5,22.5,0,0,1-22.5-22.5v0A0,0,0,0,1,153.29,478.46Z" transform="translate(398.26 76.27) rotate(41.25)"/><path class="cls-12" d="M168.56,486.94h0a22.5,22.5,0,0,1,22.5,22.5v0a0,0,0,0,1,0,0h0a22.5,22.5,0,0,1-22.5-22.5v0A0,0,0,0,1,168.56,486.94Z" transform="translate(251.61 33.09) rotate(23.88)"/><path class="cls-12" d="M185.38,495.35h0a22.5,22.5,0,0,1,22.5,22.5v0a0,0,0,0,1,0,0h0a22.5,22.5,0,0,1-22.5-22.5v0A0,0,0,0,1,185.38,495.35Z" transform="translate(256.46 27) rotate(23.88)"/><path class="cls-12" d="M46.75,359.68h0a22.5,22.5,0,0,1,22.5,22.5v0a0,0,0,0,1,0,0h0a22.5,22.5,0,0,1-22.5-22.5v0A0,0,0,0,1,46.75,359.68Z" transform="translate(10.25 67.87) rotate(-3.78)"/><path class="cls-12" d="M49.1,376.5h0A22.5,22.5,0,0,1,71.6,399v0a0,0,0,0,1,0,0h0a22.5,22.5,0,0,1-22.5-22.5v0a0,0,0,0,1,0,0Z" transform="translate(-35.85 81) rotate(-10.62)"/><path class="cls-12" d="M56.67,394.45h0A22.5,22.5,0,0,1,79.17,417v0a0,0,0,0,1,0,0h0a22.5,22.5,0,0,1-22.5-22.5v0A0,0,0,0,1,56.67,394.45Z" transform="translate(-6.39 72.26) rotate(-5.84)"/><path class="cls-12" d="M66.58,411.93h0a22.5,22.5,0,0,1,22.5,22.5v0a0,0,0,0,1,0,0h0a22.5,22.5,0,0,1-22.5-22.5v0A0,0,0,0,1,66.58,411.93Z" transform="translate(-145.69 142.13) rotate(-26.44)"/><path class="cls-12" d="M73.83,426.52h0A22.5,22.5,0,0,1,96.33,449v0a0,0,0,0,1,0,0h0a22.5,22.5,0,0,1-22.5-22.5v0a0,0,0,0,1,0,0Z" transform="translate(-125.45 128.43) rotate(-22.34)"/><path class="cls-12" d="M86.25,441.85h0a22.5,22.5,0,0,1,22.5,22.5v0a0,0,0,0,1,0,0h0a22.5,22.5,0,0,1-22.5-22.5v0A0,0,0,0,1,86.25,441.85Z" transform="translate(-178.92 172.69) rotate(-30)"/><path class="cls-12" d="M98,459.07h0a22.5,22.5,0,0,1,22.5,22.5v0a0,0,0,0,1,0,0h0A22.5,22.5,0,0,1,98,459.07v0a0,0,0,0,1,0,0Z" transform="translate(-185.96 180.87) rotate(-30)"/><path class="cls-12" d="M111.29,473.64h0a22.5,22.5,0,0,1,22.5,22.5v0a0,0,0,0,1,0,0h0a22.5,22.5,0,0,1-22.5-22.5v0a0,0,0,0,1,0,0Z" transform="translate(-231.16 232.87) rotate(-36.74)"/><path class="cls-12" d="M128.31,487.72h0a22.5,22.5,0,0,1,22.5,22.5v0a0,0,0,0,1,0,0h0a22.5,22.5,0,0,1-22.5-22.5v0A0,0,0,0,1,128.31,487.72Z" transform="translate(-257.22 275.16) rotate(-40.73)"/><path class="cls-12" d="M144.19,498.9h0a22.5,22.5,0,0,1,22.5,22.5v0a0,0,0,0,1,0,0h0a22.5,22.5,0,0,1-22.5-22.5v0A0,0,0,0,1,144.19,498.9Z" transform="translate(-296.05 353.91) rotate(-48.75)"/><path class="cls-12" d="M162.38,507h0a22.5,22.5,0,0,1,22.5,22.5v0a0,0,0,0,1,0,0h0a22.5,22.5,0,0,1-22.5-22.5v0A0,0,0,0,1,162.38,507Z" transform="translate(-327.46 472.75) rotate(-60)"/><path class="cls-12" d="M178.7,514.67h0a22.5,22.5,0,0,1,22.5,22.5v0a0,0,0,0,1,0,0h0a22.5,22.5,0,0,1-22.5-22.5v0A0,0,0,0,1,178.7,514.67Z" transform="translate(-333.28 549.97) rotate(-66.12)"/><path class="cls-11" d="M540.56,324.77s10.57,13,7.83,24.3l16.83-18.43s4-.88,1.66,3.22l-16.14,17.22s9.1-1.66,15,.69A48.55,48.55,0,0,1,559.15,367s-.59-.87,4.7,1.83c0,0-2,6.42-8.42,15.42l.2,2.74s-.2-.58,4.3,0c0,0-7,13.31-10.56,15.66l-.78,3.71h3.52s-4.26,11.62-13.31,17v2.2h4.5a50.31,50.31,0,0,1-15.45,16v1.85h3.32s-4.49,8.72-15.35,16.15a2.68,2.68,0,0,1,1.7,2.72s-.77,5.62-12.42,13.26L503,477.49s2.47-1.57,6.61.07c0,0-11.85,10.72-23.75,16.58l3.62,1.95s-2.34,5.08-20.08,10.14c0,0,1.69-.43,4,4.46,0,0-3.49,4.34-23,8.42a6.26,6.26,0,0,1,2.87,3.79s-4.46,1.49-7.82,0c0,0,.78.52,1,3,0,0-7.83,2.08-14.22.65v3.78s1.83-.13,2.87,2.48c0,0-14.08,2.35-26.48.65a31.21,31.21,0,0,1-14.47-9.65s-.66-18.52,3.65-25.57,15.91-15.94,20.35-18.54c0,0,2.87-1.28,8.47-.89,0,0,4.41-7.79,8.91-9.65,0,0,.42-.78,2.46,2,0,0,3-5.38,5.66-7.33,0,0,1.17.1.88,3,0,0,3.62-7.39,6-8,0,0,1.57-.95,2.48,0,0,0,.26-.78,3.39-.91s.66-.26.66-.26-.79-4.83,1.17-7.44c0,0-.2.76,1.7.76,0,0,1.56-4.54,3.91-6.1,0,0,1.17-.26,1.3,3.39l3-.26s-.65-4.44.26-6.65c0,0,1.44-.48,2.22,2,0,0-1-4.52.26-6.87a6.57,6.57,0,0,1,2.48,2.22s-.72-2.12.39-6.15c0,0,1.24-.11,2.35,2.43l2.87.06a15.66,15.66,0,0,1-.26-5.69s.54-.37,2.16,1.32a32.54,32.54,0,0,1,.32-8.41,4.44,4.44,0,0,1,2.74,2.35s-.53-4.17.52-5.22c0,0,1.15.25,1.95,2.94s-1.24-6.87-.26-10.51c0,0,1.31-3.8,2.87,0,0,0-1.24-2.47.85-3a6,6,0,0,1,3.78.32s-2.15-10.17.46-15.13,5.28-3.06,5.28-3.06-2.8-11.35-.13-10.24a17.21,17.21,0,0,1,3.67,1.89s-2.36-9.65,3.31-17.41a4.21,4.21,0,0,1,4.63,2.93s-2.34-19.5-1.33-23.48,14.9,7.11,14.9,7.11l-11.55-20s-1.95-6.46,2.91-2.61l10.4,20.15S531,326.33,540.56,324.77Z" transform="translate(34.56 63.24)"/><path class="cls-12" d="M548.15,337.55h0a0,0,0,0,1,0,0v0a22.5,22.5,0,0,1-22.5,22.5h0a0,0,0,0,1,0,0v0A22.5,22.5,0,0,1,548.15,337.55Z" transform="translate(1210.39 370.94) rotate(143.31)"/><path class="cls-12" d="M533.85,356.12h0a0,0,0,0,1,0,0v0a22.5,22.5,0,0,1-22.5,22.5h0a0,0,0,0,1,0,0v0A22.5,22.5,0,0,1,533.85,356.12Z" transform="translate(1035.78 7.54) rotate(103.42)"/><path class="cls-12" d="M527.07,371.13h0a0,0,0,0,1,0,0v0a22.5,22.5,0,0,1-22.5,22.5h0a0,0,0,0,1,0,0v0A22.5,22.5,0,0,1,527.07,371.13Z" transform="translate(1042.03 32.62) rotate(103.42)"/><path class="cls-12" d="M520.81,387h0a0,0,0,0,1,0,0v0a22.5,22.5,0,0,1-22.5,22.5h0a0,0,0,0,1,0,0v0A22.5,22.5,0,0,1,520.81,387Z" transform="translate(1083.85 105.19) rotate(108.56)"/><path class="cls-12" d="M513.1,400.64h0a0,0,0,0,1,0,0v0a22.5,22.5,0,0,1-22.5,22.5h0a0,0,0,0,1,0,0v0A22.5,22.5,0,0,1,513.1,400.64Z" transform="translate(1086.63 130.51) rotate(108.56)"/><path class="cls-12" d="M505.68,415.72h0a0,0,0,0,1,0,0v0a22.5,22.5,0,0,1-22.5,22.5h0a0,0,0,0,1,0,0v0A22.5,22.5,0,0,1,505.68,415.72Z" transform="translate(1131.42 237.56) rotate(116.44)"/><path class="cls-12" d="M497.06,432.17h0a0,0,0,0,1,0,0v0a22.5,22.5,0,0,1-22.5,22.5h0a0,0,0,0,1,0,0v0A22.5,22.5,0,0,1,497.06,432.17Z" transform="translate(1166.32 382.62) rotate(126.74)"/><path class="cls-12" d="M485.72,445.86h0a0,0,0,0,1,0,0v0a22.5,22.5,0,0,1-22.5,22.5h0a0,0,0,0,1,0,0v0a22.5,22.5,0,0,1,22.5-22.5Z" transform="translate(1165.02 459.07) rotate(130.73)"/><path class="cls-12" d="M474.29,455.61h0a0,0,0,0,1,0,0v0a22.5,22.5,0,0,1-22.5,22.5h0a0,0,0,0,1,0,0v0A22.5,22.5,0,0,1,474.29,455.61Z" transform="translate(1153.51 483.85) rotate(130.73)"/><path class="cls-12" d="M463.13,466.24h0a0,0,0,0,1,0,0v0a22.5,22.5,0,0,1-22.5,22.5h0a0,0,0,0,1,0,0v0A22.5,22.5,0,0,1,463.13,466.24Z" transform="translate(1143.61 558.84) rotate(135)"/><path class="cls-12" d="M449.31,476.36h0a0,0,0,0,1,0,0v0a22.5,22.5,0,0,1-22.5,22.5h0a0,0,0,0,1,0,0v0A22.5,22.5,0,0,1,449.31,476.36Z" transform="translate(1123.47 628.65) rotate(138.75)"/><path class="cls-12" d="M434,484.84h0a0,0,0,0,1,0,0v0a22.5,22.5,0,0,1-22.5,22.5h0a0,0,0,0,1,0,0v0A22.5,22.5,0,0,1,434,484.84Z" transform="translate(1044.77 841.81) rotate(156.12)"/><path class="cls-12" d="M417.21,493.25h0a0,0,0,0,1,0,0v0a22.5,22.5,0,0,1-22.5,22.5h0a0,0,0,0,1,0,0v0A22.5,22.5,0,0,1,417.21,493.25Z" transform="translate(1015.96 864.73) rotate(156.12)"/><path class="cls-12" d="M555.85,357.57h0a0,0,0,0,1,0,0v0a22.5,22.5,0,0,1-22.5,22.5h0a0,0,0,0,1,0,0v0A22.5,22.5,0,0,1,555.85,357.57Z" transform="matrix(-1, -0.07, 0.07, -1, 1098.27, 835.97)"/><path class="cls-12" d="M553.5,374.4h0a0,0,0,0,1,0,0v0A22.5,22.5,0,0,1,531,396.9h0a0,0,0,0,1,0,0v0A22.5,22.5,0,0,1,553.5,374.4Z" transform="matrix(-0.98, -0.18, 0.18, -0.98, 1038.71, 927.85)"/><path class="cls-12" d="M545.93,392.35h0a0,0,0,0,1,0,0v0a22.5,22.5,0,0,1-22.5,22.5h0a0,0,0,0,1,0,0v0A22.5,22.5,0,0,1,545.93,392.35Z" transform="translate(1060.06 922.78) rotate(-174.16)"/><path class="cls-12" d="M536,409.83h0a0,0,0,0,1,0,0v0a22.5,22.5,0,0,1-22.5,22.5h0a0,0,0,0,1,0,0v0A22.5,22.5,0,0,1,536,409.83Z" transform="translate(841.77 1094.98) rotate(-153.56)"/><path class="cls-12" d="M528.77,424.41h0a0,0,0,0,1,0,0v0a22.5,22.5,0,0,1-22.5,22.5h0a0,0,0,0,1,0,0v0A22.5,22.5,0,0,1,528.77,424.41Z" transform="translate(865.16 1098.58) rotate(-157.66)"/><path class="cls-12" d="M516.35,439.75h0a0,0,0,0,1,0,0v0a22.5,22.5,0,0,1-22.5,22.5h0a0,0,0,0,1,0,0v0A22.5,22.5,0,0,1,516.35,439.75Z" transform="translate(751.6 1157.36) rotate(-150)"/><path class="cls-12" d="M504.61,457h0a0,0,0,0,1,0,0v0a22.5,22.5,0,0,1-22.5,22.5h0a0,0,0,0,1,0,0v0A22.5,22.5,0,0,1,504.61,457Z" transform="translate(721.08 1183.62) rotate(-150)"/><path class="cls-12" d="M491.31,471.54h0a0,0,0,0,1,0,0v0a22.5,22.5,0,0,1-22.5,22.5h0a0,0,0,0,1,0,0v0A22.5,22.5,0,0,1,491.31,471.54Z" transform="translate(610.5 1220.09) rotate(-143.26)"/><path class="cls-12" d="M474.29,485.62h0a0,0,0,0,1,0,0v0a22.5,22.5,0,0,1-22.5,22.5h0a0,0,0,0,1,0,0v0A22.5,22.5,0,0,1,474.29,485.62Z" transform="matrix(-0.76, -0.65, 0.65, -0.76, 524.27, 1238.76)"/><path class="cls-12" d="M458.41,496.8h0a0,0,0,0,1,0,0v0a22.5,22.5,0,0,1-22.5,22.5h0a0,0,0,0,1,0,0v0A22.5,22.5,0,0,1,458.41,496.8Z" transform="translate(394.55 1242.45) rotate(-131.25)"/><path class="cls-12" d="M440.21,504.92h0a0,0,0,0,1,0,0v0a22.5,22.5,0,0,1-22.5,22.5h0a0,0,0,0,1,0,0v0a22.5,22.5,0,0,1,22.5-22.5Z" transform="translate(230.99 1208.98) rotate(-120)"/><path class="cls-12" d="M423.9,512.56h0a0,0,0,0,1,0,0v0a22.5,22.5,0,0,1-22.5,22.5h0a0,0,0,0,1,0,0v0A22.5,22.5,0,0,1,423.9,512.56Z" transform="translate(135.26 1176.41) rotate(-113.88)"/><circle class="cls-1" cx="334.56" cy="363.24" r="200.35"/><text class="cls-13" transform="matrix(0.05, -0.97, 1, 0.05, 111.67, 367.58)">Đ</text><text class="cls-13" transform="matrix(0.2, -0.95, 0.98, 0.21, 113.49, 329)">Ạ</text><text class="cls-13" transform="matrix(0.31, -0.92, 0.95, 0.32, 121.48, 293.98)">I</text><text class="cls-13" transform="matrix(0.37, -0.9, 0.93, 0.38, 126.32, 279.52)"> </text><text class="cls-13" transform="translate(130.39 267.43) rotate(-61.37) scale(0.97 1)">H</text><text class="cls-13" transform="matrix(0.61, -0.76, 0.78, 0.63, 148.19, 234.4)">Ọ</text><text class="cls-13" transform="matrix(0.73, -0.65, 0.66, 0.75, 172.83, 203.82)">C</text><text class="cls-13" transform="translate(198.89 181.44) rotate(-35.29) scale(0.97 1)"> </text><text class="cls-13" transform="matrix(0.86, -0.46, 0.47, 0.88, 208.81, 173.3)">K</text><text class="cls-13" transform="matrix(0.9, -0.37, 0.38, 0.92, 239.49, 157.16)">I</text><text class="cls-13" transform="translate(252.87 150.78) rotate(-15.5) scale(0.97 1)">N</text><text class="cls-13" transform="translate(289.01 140.64) rotate(-5.53) scale(0.97 1)">H</text><text class="cls-13" transform="translate(326.8 137.67) rotate(1.13) scale(0.97 1)"> </text><text class="cls-13" transform="matrix(0.97, 0.11, -0.11, 0.99, 339.69, 137.51)">T</text><text class="cls-13" transform="matrix(0.94, 0.24, -0.25, 0.97, 368.16, 140.63)">Ế</text><text class="cls-13" transform="translate(398.58 148.79) rotate(19.88) scale(0.97 1)"> </text><text class="cls-13" transform="translate(410.81 152.33) rotate(26.47) scale(0.97 1)">Q</text><text class="cls-13" transform="matrix(0.79, 0.57, -0.59, 0.81, 445.99, 169.86)">U</text><text class="cls-13" transform="translate(475.79 191.24) rotate(45.46) scale(0.97 1)">Ố</text><text class="cls-13" transform="matrix(0.56, 0.79, -0.81, 0.58, 503.31, 219.38)">C</text><text class="cls-13" transform="matrix(0.49, 0.84, -0.87, 0.5, 522.81, 247.66)"> </text><text class="cls-13" transform="matrix(0.39, 0.89, -0.92, 0.4, 529.85, 258.38)">D</text><text class="cls-13" transform="matrix(0.24, 0.94, -0.97, 0.25, 545.04, 293.27)">Â</text><text class="cls-13" transform="matrix(0.09, 0.97, -1, 0.09, 554.09, 327.7)">N</text><path class="cls-14" d="M385.58,85.76S399.93,82,407,95.93s7.69,12.92,8.35,14.22l2.61-4.3c-.65-1.31-1.3-.27-8.35-14.22s-21.39-10.18-21.39-10.18Z" transform="translate(34.56 63.24)"/><path class="cls-15" d="M391.71,97.32s5.87,2.8,8.66,3.28c2.76.25,9.08,3.63,9.08,3.63l2.21,7.31-10,3.19-10.44-5.8Z" transform="translate(34.56 63.24)"/><polygon class="cls-15" points="262.9 608.06 269.04 585.37 287.16 589.15 301.64 610.02 304.77 610.02 304.77 594.37 311.29 594.37 311.29 617.06 291.07 617.06 277.38 593.98 274.77 593.59 271.51 609.37 262.38 609.11 262.9 608.06"/><polygon class="cls-15" points="321.6 593.85 321.6 619.93 355.64 619.93 355.12 615.76 335.84 615.76 335.84 608.06 355.64 608.06 354.99 604.41 335.84 604.15 335.84 597.32 355.64 597.32 355.12 593.85 321.6 593.85"/><path class="cls-15" d="M333.6,528s.13,15,1.47,18.68,3.36,6.36,16.53,5.06,25.83-4.15,26.48-17.66-2.87-13.91-2.74-13.91h-8.09s4.7,16.73,3.52,18.92c-2.94,5.47-18.86,9.49-20.82,6.74-1.74-2.44-1.22-17.7-1.22-17.7Z" transform="translate(34.56 63.24)"/></g></svg>