<svg id="Layer_1" data-name="Layer 1" xmlns="http://www.w3.org/2000/svg" viewBox="0 0 417.1 389.18"><defs><style>.cls-1{fill:#030000;}</style></defs><g id="Noc_đen" data-name="Noc đen"><path class="cls-1" d="M365.07,127.36V98.88A194.55,194.55,0,0,0,193.73,201.17L133.42,98.88H106.81V488.06H134.2V153.66l45.4,79.83h0c-6.46,19.35-9.12,38.46-9.12,60,0,107.47,87.12,194.59,194.59,194.59V459.58a166.11,166.11,0,0,1,0-332.22Z" transform="translate(-106.81 -98.88)"/><path class="cls-1" d="M366,276.13a18.79,18.79,0,1,0,18.79,18.79A18.78,18.78,0,0,0,366,276.13Zm.3,34.18A15.34,15.34,0,1,1,381.58,295,15.34,15.34,0,0,1,366.25,310.31Z" transform="translate(-106.81 -98.88)"/><path class="cls-1" d="M366.25,271.33A23.64,23.64,0,1,0,389.89,295,23.64,23.64,0,0,0,366.25,271.33Zm-.3,43.84a20.59,20.59,0,1,1,20.59-20.59A20.59,20.59,0,0,1,366,315.17Z" transform="translate(-106.81 -98.88)"/><path d="M455.76,294.58l-51.26-8.22-.12,5h-5.86a6.62,6.62,0,0,0-3.73-3,29.26,29.26,0,0,0-22.22-22.22,6.68,6.68,0,0,0-2.76-3.59v-6l4.36.1L366,205l-8.21,51.26,4.95.12v6.16a6.61,6.61,0,0,0-2.76,3.58,29.26,29.26,0,0,0-22.3,22.53,6.69,6.69,0,0,0-3.52,2.73h-6.6l.1-4.24L276,295.38l51.27,8.22.12-5.08h6.75a6.64,6.64,0,0,0,3.69,2.8,29.27,29.27,0,0,0,22.15,21.9,6.61,6.61,0,0,0,2.76,3.58v6.59l-4.95-.12L366,384.92l8.22-51.26-4.36-.1v-6.75a6.68,6.68,0,0,0,2.76-3.59A29.26,29.26,0,0,0,394.79,301a6.64,6.64,0,0,0,3.42-2.52h6l-.1,4.32Zm-64.06,6.59-.15,0,.14,0a26.3,26.3,0,0,1-18.9,18.9s0-.09,0-.14l0,.16a26.71,26.71,0,0,1-6.49.81,26.28,26.28,0,0,1-25.37-19.45h0a26.26,26.26,0,0,1,25.37-33.08,26.71,26.71,0,0,1,6.49.81l0,.16c0-.05,0-.1,0-.15a26.3,26.3,0,0,1,18.91,31.94Z" transform="translate(-106.81 -98.88)"/><path class="cls-1" d="M519.69,288a4.14,4.14,0,0,0-3.61,2.6h-1.46c-1.39-3.65-5.4-6.29-10.14-6.29a11.54,11.54,0,0,0-7.73,2.84h-4.27a125.83,125.83,0,0,0-32.28-78.27l2.91-2.91a11.44,11.44,0,0,0,7.85-3.47c3.15-3.15,4.2-7.49,3-11l1.48-1.49a3.93,3.93,0,0,0,3.68-.91c1.65-1.65,1.27-4.7-.84-6.81s-5.16-2.49-6.81-.85a4.16,4.16,0,0,0-.71,4.4l-1,1c-3.57-1.6-8.27-.63-11.62,2.73a11.51,11.51,0,0,0-3.46,7.46l-3.07,3.07a125.91,125.91,0,0,0-79.32-33V162.8a11.5,11.5,0,0,0,3.1-8,10.82,10.82,0,0,0-5.65-9.86v-2.1a3.92,3.92,0,0,0,2-3.25c0-2.33-2.42-4.22-5.41-4.22s-5.42,1.89-5.42,4.22a4.15,4.15,0,0,0,2.61,3.61v1.46c-3.65,1.39-6.29,5.4-6.29,10.14a11.54,11.54,0,0,0,2.84,7.73v4.59a125.91,125.91,0,0,0-78.19,32.21L279,196.56a11.48,11.48,0,0,0-3.47-7.85c-3.15-3.15-7.49-4.2-11-3l-1.49-1.49a3.93,3.93,0,0,0-.91-3.68c-1.65-1.65-4.7-1.27-6.81.84s-2.49,5.17-.84,6.81a4.12,4.12,0,0,0,4.39.71l1,1c-1.61,3.56-.64,8.26,2.72,11.62a11.55,11.55,0,0,0,7.46,3.45l2.92,2.92A125.93,125.93,0,0,0,240,287.36h-3.17a11.45,11.45,0,0,0-8-3.1A10.81,10.81,0,0,0,219,289.9h-2.1a3.93,3.93,0,0,0-3.25-1.95c-2.33,0-4.22,2.42-4.22,5.41s1.89,5.41,4.22,5.41a4.13,4.13,0,0,0,3.61-2.61h1.46c1.39,3.65,5.4,6.3,10.14,6.3a11.59,11.59,0,0,0,7.73-2.84H240A125.94,125.94,0,0,0,272.35,378l-2.12,2.12a11.51,11.51,0,0,0-7.85,3.46,10.82,10.82,0,0,0-3,11L257.91,396a3.91,3.91,0,0,0-3.68.92c-1.65,1.64-1.27,4.7.84,6.81s5.17,2.49,6.82.84a4.14,4.14,0,0,0,.7-4.39l1-1c3.56,1.6,8.27.63,11.62-2.72a11.55,11.55,0,0,0,3.45-7.47l2.29-2.28a126,126,0,0,0,79.26,32.95v3.49a11.45,11.45,0,0,0-3.1,8,10.81,10.81,0,0,0,5.64,9.86v2.1a4,4,0,0,0-2,3.25c0,2.33,2.43,4.22,5.42,4.22s5.41-1.89,5.41-4.22a4.15,4.15,0,0,0-2.61-3.61v-1.46c3.65-1.39,6.3-5.4,6.3-10.14a11.57,11.57,0,0,0-2.84-7.72V419.6a125.88,125.88,0,0,0,78.88-32.84l2.46,2.45a11.47,11.47,0,0,0,3.46,7.85c3.15,3.15,7.5,4.2,11,3l1.48,1.48a3.93,3.93,0,0,0,.91,3.68c1.65,1.65,4.7,1.27,6.82-.84s2.49-5.16.84-6.81a4.14,4.14,0,0,0-4.39-.71l-1-1c1.6-3.56.63-8.27-2.72-11.62a11.51,11.51,0,0,0-7.47-3.46L460,378.07a125.84,125.84,0,0,0,32.45-78.71h4a11.52,11.52,0,0,0,8,3.1,10.81,10.81,0,0,0,9.86-5.64h2.1a3.93,3.93,0,0,0,3.25,1.95c2.33,0,4.22-2.42,4.22-5.41S522,288,519.69,288ZM366.25,395.62A100.24,100.24,0,1,1,466.49,295.38,100.24,100.24,0,0,1,366.25,395.62Z" transform="translate(-106.81 -98.88)"/></g></svg>