<svg id="Layer_1" data-name="Layer 1" xmlns="http://www.w3.org/2000/svg" viewBox="0 0 600.75 600.75"><defs><style>.cls-1{fill:#080100;stroke:#050000;stroke-miterlimit:10;stroke-width:0.75px;}.cls-2{fill:#fff;}</style></defs><g id="NOC_trắng" data-name="NOC trắng"><rect class="cls-1" x="0.38" y="0.38" width="600" height="600"/><path class="cls-2" d="M375.33,107.79V79.3A194.56,194.56,0,0,0,204,181.6L143.67,79.3h-26.6V468.49h27.39V134.09l45.39,79.82h0c-6.46,19.36-9.12,38.46-9.12,60,0,107.47,87.13,194.59,194.6,194.59V440a166.11,166.11,0,1,1,0-332.21Z" transform="translate(0.37 0.38)"/><path class="cls-2" d="M376.21,256.56A18.79,18.79,0,1,0,395,275.34,18.78,18.78,0,0,0,376.21,256.56Zm.29,34.17a15.34,15.34,0,1,1,15.33-15.33A15.33,15.33,0,0,1,376.5,290.73Z" transform="translate(0.37 0.38)"/><path class="cls-2" d="M376.5,251.76a23.64,23.64,0,1,0,23.64,23.64A23.63,23.63,0,0,0,376.5,251.76Zm-.3,43.84A20.6,20.6,0,1,1,396.8,275,20.59,20.59,0,0,1,376.2,295.6Z" transform="translate(0.37 0.38)"/><path class="cls-2" d="M466,275l-51.26-8.22-.12,5h-5.86a6.7,6.7,0,0,0-3.73-3,29.27,29.27,0,0,0-22.22-22.22,6.61,6.61,0,0,0-2.76-3.58v-6l4.36.11-8.21-51.65L368,236.71l4.95.11V243a6.65,6.65,0,0,0-2.76,3.58,29.28,29.28,0,0,0-22.29,22.54,6.61,6.61,0,0,0-3.53,2.73h-6.6l.1-4.24-51.65,8.21L337.47,284l.12-5.07h6.75a6.66,6.66,0,0,0,3.69,2.79,29.26,29.26,0,0,0,22.15,21.9,6.61,6.61,0,0,0,2.76,3.58v6.59L368,313.7l8.22,51.65,8.21-51.26-4.36-.11v-6.75a6.59,6.59,0,0,0,2.76-3.59A29.26,29.26,0,0,0,405,281.42a6.59,6.59,0,0,0,3.42-2.52h6l-.1,4.32ZM402,281.6v0h0A26.34,26.34,0,0,1,383,300.55H383a26.29,26.29,0,0,1-31.86-18.64s0,0,0,0h0A26.28,26.28,0,0,1,383,249.65H383a26.27,26.27,0,0,1,19.73,25.44A26.79,26.79,0,0,1,402,281.6Z" transform="translate(0.37 0.38)"/><path class="cls-2" d="M529.94,268.37a4.15,4.15,0,0,0-3.61,2.61h-1.46c-1.39-3.65-5.4-6.3-10.14-6.3a11.61,11.61,0,0,0-7.73,2.84h-4.26a125.9,125.9,0,0,0-32.28-78.27l2.91-2.91a11.43,11.43,0,0,0,7.84-3.47,10.8,10.8,0,0,0,3-11l1.48-1.48a3.93,3.93,0,0,0,3.68-.92c1.65-1.65,1.28-4.7-.84-6.81s-5.16-2.49-6.81-.84a4.13,4.13,0,0,0-.71,4.39l-1,1c-3.56-1.6-8.27-.63-11.62,2.72a11.56,11.56,0,0,0-3.46,7.47l-3.07,3.06a125.87,125.87,0,0,0-79.32-33v-4.31a11.47,11.47,0,0,0,3.1-8c0-4.46-2.33-8.27-5.64-9.86v-2.11a3.93,3.93,0,0,0,2-3.24c0-2.34-2.42-4.23-5.41-4.23s-5.41,1.89-5.41,4.23a4.12,4.12,0,0,0,2.61,3.6v1.47c-3.66,1.38-6.3,5.4-6.3,10.14a11.52,11.52,0,0,0,2.84,7.72v4.6a125.9,125.9,0,0,0-78.19,32.2L289.28,177a11.51,11.51,0,0,0-3.46-7.85,10.82,10.82,0,0,0-11-3l-1.48-1.49a3.94,3.94,0,0,0-.92-3.68c-1.65-1.65-4.7-1.27-6.81.85s-2.49,5.16-.84,6.81a4.13,4.13,0,0,0,4.39.7l1,1c-1.6,3.56-.63,8.27,2.72,11.62a11.61,11.61,0,0,0,7.47,3.46l2.92,2.92a125.91,125.91,0,0,0-33.09,79.4h-3.16a11.52,11.52,0,0,0-8-3.1,10.82,10.82,0,0,0-9.87,5.65h-2.1a3.92,3.92,0,0,0-3.25-2c-2.33,0-4.22,2.42-4.22,5.41s1.89,5.42,4.22,5.42a4.15,4.15,0,0,0,3.61-2.61h1.46c1.39,3.65,5.4,6.29,10.15,6.29a11.52,11.52,0,0,0,7.72-2.84h3.45a125.92,125.92,0,0,0,32.34,78.34l-2.12,2.12a11.48,11.48,0,0,0-7.85,3.47,10.8,10.8,0,0,0-3,11l-1.49,1.49a3.94,3.94,0,0,0-3.68.91c-1.65,1.65-1.27,4.7.85,6.81s5.16,2.49,6.81.84a4.13,4.13,0,0,0,.7-4.39l1-1c3.56,1.61,8.27.64,11.62-2.72a11.61,11.61,0,0,0,3.46-7.46l2.28-2.29A125.89,125.89,0,0,0,370.5,400v3.49a11.45,11.45,0,0,0-3.1,8c0,4.46,2.33,8.27,5.64,9.86v2.1a4,4,0,0,0-2,3.25c0,2.34,2.42,4.23,5.41,4.23s5.41-1.89,5.41-4.23a4.12,4.12,0,0,0-2.61-3.6v-1.47c3.66-1.38,6.3-5.4,6.3-10.14a11.52,11.52,0,0,0-2.84-7.72V400a125.9,125.9,0,0,0,78.89-32.83l2.45,2.45a11.48,11.48,0,0,0,3.47,7.85,10.79,10.79,0,0,0,11,3L480,382a3.94,3.94,0,0,0,.92,3.68c1.65,1.65,4.7,1.27,6.81-.85s2.49-5.16.84-6.81a4.11,4.11,0,0,0-4.39-.7l-1-1c1.6-3.56.63-8.27-2.72-11.62a11.56,11.56,0,0,0-7.47-3.46l-2.66-2.66a126,126,0,0,0,32.45-78.72h4a11.45,11.45,0,0,0,8,3.1,10.81,10.81,0,0,0,9.86-5.64h2.1a4,4,0,0,0,3.25,2c2.33,0,4.22-2.43,4.22-5.42S532.27,268.37,529.94,268.37ZM376.5,376A100.24,100.24,0,1,1,476.74,275.8,100.24,100.24,0,0,1,376.5,376Z" transform="translate(0.37 0.38)"/></g></svg>